PathFileType	4	(X/Y/Z)	62_1_47_p1_0-365_filt_butterworth.trc
DataRate	CameraRate	NumFrames	NumMarkers	Units	OrigDataRate	OrigDataStartFrame	OrigNumFrames
48.0	48.0	6	27	m	48.0	228	365
Frame#	Time	RHip			RKnee			RAnkle			RBigToe			RSmallToe			RHeel			LHip			LKnee			LAnkle			LBigToe			LSmallToe			LHeel			Neck			Head			Nose			RShoulder			RElbow			RWrist			RThumb			RIndex			RPinky			LShoulder			LElbow			LWrist			LThumb			LIndex			LPinky			
		X1	Y1	Z1	X2	Y2	Z2	X3	Y3	Z3	X4	Y4	Z4	X5	Y5	Z5	X6	Y6	Z6	X7	Y7	Z7	X8	Y8	Z8	X9	Y9	Z9	X10	Y10	Z10	X11	Y11	Z11	X12	Y12	Z12	X13	Y13	Z13	X14	Y14	Z14	X15	Y15	Z15	X16	Y16	Z16	X17	Y17	Z17	X18	Y18	Z18	X19	Y19	Z19	X20	Y20	Z20	X21	Y21	Z21	X22	Y22	Z22	X23	Y23	Z23	X24	Y24	Z24	X25	Y25	Z25	X26	Y26	Z26	X27	Y27	Z27	
228	4.75	0.30051383841137747	0.4269407331398359	0.2666984938797119	0.31892816010929914	0.7527301265136497	0.5011220664106844	0.3275499226538391	1.0687530240700436	0.7886456099727682	0.2858017786397467	0.9358871619510545	0.9381221261556046	0.36161952602197234	0.9653020157412077	0.9271459444249783	0.31874470392114446	1.1166068286213058	0.8123592910741745	0.10023411866043348	0.4842635549337252	0.22975542879090188	0.1403820762375937	0.8000345232775409	0.4828305781969161	0.15896220046633242	1.0432599035125902	0.7809251884965374	0.13174378956539964	0.9422543476368649	0.9255568528354946	0.08022514544781145	0.9654078544855419	0.8929337615613665	0.19815817576852127	1.1400734615498658	0.8024447468970567	0.2156983533210896	0.07278321696514291	-0.21576650944935968	0.21490692322095428	-0.05845932580226947	-0.4022531945270493	0.18734353240984025	-0.05759040207790548	-0.2619906222435131	0.3678968503991598	0.12489322817682881	-0.1150658487250294	0.39636740437130197	0.22021099706277675	0.13629099851328647	0.39297535710273424	0.3714677448865347	0.35422178489630846	0.33051294928832226	0.4590573077168507	0.4482164244559767	0.3486079968045125	0.4871811573414598	0.4651468593246584	0.38090408725556885	0.5160414003482863	0.4232306365406958	0.05398563167935738	0.17105486743379628	-0.16829117088702206	0.0016051712220810344	0.3529119752979993	0.0451867864983314	-0.01769245952151803	0.44775319985755074	0.2890684114857499	0.019987391949950722	0.5285433406183165	0.3704397979970629	-0.008227089809924001	0.4987227485722451	0.39331205709633965	-0.022937900539636187	0.5242022340932211	0.37678567437013366
229	4.770833333333333	0.3021773158888719	0.43372389477913736	0.266667988636603	0.318931172018726	0.7527380013148173	0.5012510257391781	0.32516743726291814	1.0654294956435453	0.7899030528221076	0.28514783276613037	0.9353027437331334	0.9397319304235741	0.36159981334866087	0.9662863053640767	0.9272328275646774	0.31559129337052205	1.1125235989225615	0.8146080135688517	0.10016931177741953	0.48416040819303635	0.2298175937901901	0.14072080082328442	0.8011942182896453	0.4839434520930074	0.15755051689938607	1.0407449533447577	0.7840759436400083	0.13261967138562958	0.9447876190608712	0.927574120322574	0.08075002617175239	0.9668726108161118	0.8945774343738099	0.1969142892564289	1.139601989112394	0.8043447068412595	0.2168841661499909	0.0727782084388058	-0.21567670925930504	0.21641490606022162	-0.056380645441360004	-0.4038584028546304	0.1899023410967176	-0.053419035826356105	-0.2637001811575172	0.3679148930260324	0.12548928958216385	-0.1148302978404051	0.39647314905607534	0.22097974082091618	0.13726996830428628	0.3930150062375583	0.3714843439069459	0.35419702825543714	0.332909944486604	0.4628411735251768	0.4482298047170058	0.3514023668738306	0.48670813001332097	0.4650008688922226	0.38059871099007436	0.5171300344458465	0.4234443451203212	0.05394648997858017	0.1711022327152846	-0.16847677059146343	-0.00043438223004348933	0.3629179033384263	0.041741059836591335	-0.02101497699610956	0.44993928169800723	0.28870345579153184	0.014672671804693642	0.5188622545994188	0.3732690206427155	-0.01184565060143353	0.4944479351083178	0.39512436584678934	-0.023518424901905637	0.5275090266301857	0.3760978268661668
230	4.791666666666667	0.3024792632191449	0.43577405156705046	0.2667540114516855	0.3189317510829853	0.7527840914425135	0.5012660993358414	0.3237374874191291	1.0646632824732927	0.7887209229141272	0.28494805516864763	0.9334664660612421	0.9400559460580205	0.36149193538771507	0.9690766500839513	0.9268256770904335	0.3159903154326247	1.1128537981153936	0.8152998222023029	0.09988134000238504	0.4836083454842913	0.22992197258510505	0.14086483003802533	0.8014196964440252	0.48412537963934543	0.15728339146079207	1.0404475332336076	0.7854317245031665	0.13265412461288079	0.9447455244105009	0.9280517493004246	0.08116093698998472	0.9674599473219594	0.8954536669383488	0.19425974482231728	1.1392062914487449	0.8049077305077169	0.2185307240862595	0.0726747296185095	-0.21559227233382078	0.21676275731489236	-0.05591656111509919	-0.40422032348818104	0.19275412754090446	-0.049923508437534715	-0.26439446003396133	0.36796808954512794	0.1251550138683457	-0.11430118749860199	0.39634761764234333	0.2216142492606361	0.13790538616939052	0.3930580107478349	0.37153381469382973	0.3541632943654731	0.33456967349571465	0.4635930565590837	0.44816857209407546	0.353404057072623	0.4856741442639575	0.4658978101811187	0.38067856478765766	0.5175988139855009	0.42357824522585746	0.053954450298411165	0.17120038234260448	-0.16849748922223065	-0.003954924481936457	0.3702055928466811	0.039973880291397874	-0.023583889195439283	0.45297256997525304	0.28704332614992323	0.010617467557509818	0.5107375719540888	0.37443441006820877	-0.014218976148930933	0.49157517349136703	0.3965161149604514	-0.024314196479807315	0.5343689997603669	0.3752390878867893
231	4.8125	0.3021307453730543	0.43490773232561236	0.26659213592462383	0.31892953942603275	0.7528831299434021	0.5012217615765755	0.3242868837349148	1.0668769587988227	0.7869739104980511	0.2848337142896576	0.9323021980781758	0.939855876663503	0.3617046035297845	0.9721564644695837	0.9264333786735819	0.31772769798873296	1.1148297762741948	0.8149043273517013	0.09973258619014114	0.4876243396681915	0.22829879999452007	0.14090742137078427	0.8012899044510441	0.48393585043610854	0.15748297768776384	1.040962737489866	0.7854748225454161	0.13239356929267554	0.9440462518302977	0.9278203215955743	0.08125376275442782	0.9673913929252176	0.8955108346551076	0.19270306202989865	1.1394419379607856	0.8051405457946958	0.2200779859232233	0.07330627910311033	-0.21599801970229318	0.2166407374817106	-0.056117667094637294	-0.4040641966297011	0.195097907889891	-0.04945551133991974	-0.26361952352157114	0.3681029085388038	0.12445648477431834	-0.1140466866107281	0.3961493353228719	0.22181610731763693	0.1379865993638133	0.3930808544976822	0.37157971983629023	0.35413443548210144	0.33494223866110306	0.46310955296577805	0.44802833539674103	0.35397808637527417	0.4845371093685722	0.4670909657194341	0.38166966273546776	0.516727990069765	0.42361542513370065	0.0540702827397891	0.17119447938688384	-0.16862308344072469	-0.007072431127113753	0.3731370851321578	0.03953629472045038	-0.02496529248270707	0.4577496234417324	0.28328975940243084	0.006444207523905732	0.5049537214152138	0.37437658201734936	-0.014805540366879377	0.4914498783966228	0.3965912996953286	-0.025760746789749343	0.542435242841266	0.37405726920966165
232	4.833333333333333	0.3017903216725541	0.43367329728577536	0.265706033059243	0.31891492311607916	0.7528992944518353	0.5011825327680917	0.3260336528831466	1.0703972713751824	0.7865370592748719	0.28475964116718117	0.9321805798924779	0.9397201041878336	0.3621327349880658	0.9725270049276789	0.9263611156287308	0.3185535832185553	1.1157020616311386	0.8143693594332369	0.100490408018624	0.49820025999021655	0.22428942911272606	0.1409436053919024	0.8012844936678295	0.4838316560690984	0.15762235971563157	1.0413348227443082	0.7853110775191938	0.1321348780298141	0.9436429204123975	0.927637752047433	0.08118349886386128	0.9672338014723996	0.8952793277033194	0.1939438398666264	1.1406000985232068	0.8056314685111289	0.2219012707365096	0.07583159350473688	-0.21759542832347864	0.2165922516462796	-0.056250574532197395	-0.40397347800379513	0.19655925177667197	-0.052535419175891135	-0.2613975198519364	0.3682225263429345	0.12405205510603896	-0.11451166171925573	0.3964944094555205	0.2218381026001076	0.13788524741299132	0.39307902931740457	0.371596813455196	0.3541349451335316	0.33478134880411514	0.4627431867462932	0.4478848208844782	0.35386086781046855	0.4839324823474229	0.46764928410436846	0.3832043685874118	0.5151793221925338	0.42357414504272584	0.05421192134786031	0.17134346143385426	-0.16850974445761846	-0.007738069620503257	0.3750707395007103	0.039033402411168296	-0.026369932300946863	0.4641629747032313	0.27984639096977426	0.0021924635842356897	0.5026088529436442	0.37525002283309855	-0.015012945278346882	0.49410007924941296	0.3958024899220219	-0.028486959741467793	0.5495667283399007	0.3720625716321783
233	4.854166666666667	0.30219563784043535	0.43366269086437403	0.26401958008887566	0.31890481565450396	0.7527372356605035	0.5011636390317088	0.32699169857175125	1.0720027618369405	0.7879404000257193	0.284749830628208	0.9323915582904972	0.9397247371857443	0.36184148143907713	0.9690231353235133	0.9265897254774466	0.3185885173564009	1.1156775987551308	0.8141757882334819	0.10203440029452643	0.5105217617315093	0.2196893266937571	0.14098305884826962	0.8014155442383899	0.483822041244819	0.1576192537246243	1.0414049025895142	0.7853052314015523	0.1319724076207972	0.9436899397228192	0.927563914893764	0.08113389784192838	0.9668717244465057	0.8951050792853185	0.1966847253126773	1.1417019726826376	0.806182274430616	0.224082471225716	0.07953095354368728	-0.21992851365996743	0.21664523317144624	-0.05626207392369766	-0.40399665183131034	0.1972001427903027	-0.05712864421127837	-0.25851035567757963	0.36828362179164786	0.12405899020170923	-0.11523050516771921	0.39781711928856417	0.2217317906941313	0.13792796991402026	0.39306730289442027	0.37159432422501226	0.35414620696094756	0.33474156827646445	0.46253927331611827	0.4478072509160226	0.35372657205701474	0.4837950341864683	0.46761578691062644	0.3842812301139365	0.5140851488141117	0.42342804695268876	0.054251046425533446	0.1718554202690817	-0.16768975652190551	-0.006787261818603216	0.3780338653407545	0.03864811690437111	-0.028937811521174875	0.47176017852948826	0.2782573382785669	-0.000823958584662382	0.5038044622170941	0.37825303995383197	-0.016272366499801943	0.499610072025551	0.3948796101748996	-0.03188514510805804	0.5564139571982377	0.36975121443428904
